HIERARCHY
ROOT joint_Root
{
	OFFSET 0.0 0.0 0.0
	CHANNELS 6 Xposition Yposition Zposition Zrotation Xrotation Yrotation 
	JOINT Hips
	{
		OFFSET 4.5925 91.4895 -427.239
		CHANNELS 6 Xposition Yposition Zposition Zrotation Xrotation Yrotation 
		JOINT Spine
		{
			OFFSET 15.7357 0.0 0.0
			CHANNELS 6 Xposition Yposition Zposition Zrotation Xrotation Yrotation 
			JOINT Chest
			{
				OFFSET 8.98455 -0.406207 0.0
				CHANNELS 6 Xposition Yposition Zposition Zrotation Xrotation Yrotation 
				JOINT Neck
				{
					OFFSET 16.3773 0.0 0.0
					CHANNELS 6 Xposition Yposition Zposition Zrotation Xrotation Yrotation 
					JOINT Head
					{
						OFFSET 6.45672 0.0 0.0
						CHANNELS 6 Xposition Yposition Zposition Zrotation Xrotation Yrotation 
						End Site
						{
							OFFSET 0.0 0.0 0.0
						}
					}
				}
				JOINT Shoulder_L
				{
					OFFSET 12.9942 -0.242716 4.98039
					CHANNELS 6 Xposition Yposition Zposition Zrotation Xrotation Yrotation 
					JOINT UpperArm_L
					{
						OFFSET 5.34809 0.0 0.0
						CHANNELS 6 Xposition Yposition Zposition Zrotation Xrotation Yrotation 
						JOINT LowerArm_L
						{
							OFFSET 24.3286 1.87007e-05 0.0
							CHANNELS 6 Xposition Yposition Zposition Zrotation Xrotation Yrotation 
							JOINT Hand_L
							{
								OFFSET 22.2916 0.0 0.0
								CHANNELS 6 Xposition Yposition Zposition Zrotation Xrotation Yrotation 
								End Site
								{
									OFFSET 0.0 0.0 0.0
								}
							}
						}
					}
				}
				JOINT Shoulder_R
				{
					OFFSET 12.9945 -0.242716 -4.98039
					CHANNELS 6 Xposition Yposition Zposition Zrotation Xrotation Yrotation 
					JOINT UpperArm_R
					{
						OFFSET -5.34813 0.0 0.0
						CHANNELS 6 Xposition Yposition Zposition Zrotation Xrotation Yrotation 
						JOINT LowerArm_R
						{
							OFFSET -24.3289 0.000322201 0.0
							CHANNELS 6 Xposition Yposition Zposition Zrotation Xrotation Yrotation 
							JOINT Hand_R
							{
								OFFSET -22.2915 -0.000108084 0.0
								CHANNELS 6 Xposition Yposition Zposition Zrotation Xrotation Yrotation 
								End Site
								{
									OFFSET 0.0 0.0 0.0
								}
							}
						}
					}
				}
			}
		}
		JOINT UpperLeg_L
		{
			OFFSET -2.19248 -6.46944 0.0
			CHANNELS 6 Xposition Yposition Zposition Zrotation Xrotation Yrotation 
			JOINT LowerLeg_L
			{
				OFFSET 39.0811 0.0 -1.23785e-05
				CHANNELS 6 Xposition Yposition Zposition Zrotation Xrotation Yrotation 
				JOINT Foot_L
				{
					OFFSET 40.9854 0.0 -1.26872e-05
					CHANNELS 6 Xposition Yposition Zposition Zrotation Xrotation Yrotation 
					JOINT Toes_L
					{
						OFFSET 11.7543 0.0 0.0
						CHANNELS 6 Xposition Yposition Zposition Zrotation Xrotation Yrotation 
						End Site
						{
							OFFSET 0.0 0.0 0.0
						}
					}
				}
			}
		}
		JOINT UpperLeg_R
		{
			OFFSET -2.19251 6.46944 0.0
			CHANNELS 6 Xposition Yposition Zposition Zrotation Xrotation Yrotation 
			JOINT LowerLeg_R
			{
				OFFSET -39.0811 -0.00228153 -0.0401928
				CHANNELS 6 Xposition Yposition Zposition Zrotation Xrotation Yrotation 
				JOINT Foot_R
				{
					OFFSET -40.9854 0.0 0.0
					CHANNELS 6 Xposition Yposition Zposition Zrotation Xrotation Yrotation 
					JOINT Toes_R
					{
						OFFSET -11.7543 0.0 0.0
						CHANNELS 6 Xposition Yposition Zposition Zrotation Xrotation Yrotation 
						End Site
						{
							OFFSET 0.0 0.0 0.0
						}
					}
				}
			}
		}
	}
}
MOTION
Frames:	6
Frame Time:	0.0333333
0.000000 0.000000 0.000000 0.000000 0.000000 -0.000000 131.275000 88.589900 145.314000 91.680600 -38.580900 1.913350 15.735700 0.000005 -0.000001 79.964700 80.536700 -80.608800 8.984550 -0.406207 -0.000000 10.865800 -3.291350 -0.974770 16.377300 -0.000001 -0.000001 1.255310 -17.421000 2.888790 6.456720 -0.000001 -0.000000 -1.913520 -22.774200 8.267190 12.994200 -0.242716 4.980390 -90.651900 2.413300 -74.879900 5.348090 -0.000007 -0.000001 -53.917100 22.307600 -25.214500 24.328600 0.000019 0.000005 7.605620 12.554800 -31.561400 22.291600 -0.000001 0.000005 17.284000 5.191290 2.936660 12.994500 -0.242716 -4.980390 88.437900 9.901630 -80.988600 -5.348130 -0.000001 -0.000004 -63.927600 31.363400 -11.756100 -24.328900 0.000322 -0.000009 0.059671 0.168858 -19.774400 -22.291500 -0.000108 -0.000004 16.425900 5.398700 -2.895060 -2.192480 -6.469440 -0.000000 -177.300000 -21.862800 -5.794250 39.081100 -0.000007 -0.000012 0.008925 -0.011230 38.470900 40.985400 -0.000006 -0.000013 -1.058120 -2.371320 -75.572400 11.754300 -0.000000 0.000003 -1.773470 -2.218820 -19.972600 -2.192510 6.469440 -0.000001 -169.563000 18.573900 152.788000 -39.081100 -0.002282 -0.040193 -0.109634 0.165169 34.360500 -40.985400 0.000008 0.000006 13.756100 -0.437373 -60.284600 -11.754300 -0.000006 -0.000006 -0.011275 -0.112931 -21.175900
0.000000 0.000000 0.000000 0.000000 0.000000 -0.000000 129.756000 88.420400 147.562000 91.652900 -39.262500 2.201810 15.735700 0.000005 -0.000001 79.765400 80.519200 -80.060000 8.984550 -0.406207 -0.000000 10.898800 -3.352360 -0.269011 16.377300 -0.000001 -0.000001 1.255400 -17.421700 2.914050 6.456720 -0.000001 -0.000000 -1.735070 -22.535700 7.416690 12.994200 -0.242716 4.980390 -90.793300 2.893650 -74.662600 5.348090 -0.000007 -0.000001 -54.781100 22.509700 -24.599100 24.328600 0.000019 0.000005 7.242400 12.227900 -30.963800 22.291600 -0.000001 0.000005 17.611400 5.194880 2.847360 12.994500 -0.242716 -4.980390 88.385300 10.203200 -80.957800 -5.348130 -0.000001 -0.000004 -62.866500 31.197400 -11.819900 -24.328900 0.000322 -0.000009 -0.125465 -0.350674 -19.534900 -22.291500 -0.000108 -0.000004 16.441000 5.400120 -2.941520 -2.192480 -6.469440 -0.000000 -176.229000 -22.584800 -6.629310 39.081100 -0.000007 -0.000012 0.038713 -0.040242 43.889000 40.985400 -0.000006 -0.000013 -2.005760 -1.231890 -72.762000 11.754300 -0.000000 0.000003 -0.017950 -0.155671 -22.933400 -2.192510 6.469440 -0.000001 -170.746000 15.113800 153.878000 -39.081100 -0.002282 -0.040193 -0.148758 0.200165 37.220100 -40.985400 0.000008 0.000006 13.159800 -3.398430 -62.780300 -11.754300 -0.000006 -0.000006 -0.006625 -0.076414 -19.683500
0.000000 0.000000 0.000000 0.000000 0.000000 -0.000000 128.190000 88.414000 149.587000 92.131400 -40.212000 3.081420 15.735700 0.000005 -0.000001 80.456400 80.472000 -80.662500 8.984550 -0.406207 -0.000000 11.032700 -3.141610 -0.108598 16.377300 -0.000001 -0.000001 1.721180 -17.528400 3.259250 6.456720 -0.000001 -0.000000 -1.575590 -22.540100 7.266890 12.994200 -0.242716 4.980390 -90.719400 2.603170 -74.546700 5.348090 -0.000007 -0.000001 -56.765700 22.920200 -23.676500 24.328600 0.000019 0.000005 7.324340 12.739300 -30.237500 22.291600 -0.000001 0.000005 17.324800 5.193200 2.889490 12.994500 -0.242716 -4.980390 88.354400 10.141000 -80.732800 -5.348130 -0.000001 -0.000004 -62.559400 30.597800 -11.996500 -24.328900 0.000322 -0.000009 -0.073087 -0.206971 -19.189400 -22.291500 -0.000108 -0.000004 16.533600 5.399360 -2.916970 -2.192480 -6.469440 -0.000000 -175.559000 -22.410700 -9.524240 39.081100 -0.000007 -0.000012 0.112930 -0.089072 51.734800 40.985400 -0.000006 -0.000013 -3.283850 -0.881949 -65.482400 11.754300 -0.000000 0.000003 -0.067923 -0.356717 -31.339500 -2.192510 6.469440 -0.000001 -171.813000 13.645400 155.709000 -39.081100 -0.002282 -0.040193 -0.171082 0.216902 38.795200 -40.985400 0.000008 0.000006 12.763100 -4.315770 -65.135200 -11.754300 -0.000006 -0.000006 -0.004492 -0.056461 -18.870100
0.000000 0.000000 0.000000 0.000000 0.000000 -0.000000 126.680000 88.457600 151.384000 92.586400 -41.078200 4.073260 15.735700 0.000005 -0.000001 81.152900 80.306700 -81.355700 8.984550 -0.406207 -0.000000 11.395700 -2.964330 -0.109649 16.377300 -0.000001 -0.000001 1.939150 -17.670500 3.665870 6.456720 -0.000001 -0.000000 -1.455520 -22.694300 7.413420 12.994200 -0.242716 4.980390 -90.650100 2.340060 -74.470500 5.348090 -0.000007 -0.000001 -58.135400 23.834700 -22.794000 24.328600 0.000019 0.000005 7.560290 13.239300 -30.093500 22.291600 -0.000001 0.000005 16.194400 5.191040 2.943230 12.994500 -0.242716 -4.980390 88.400100 9.816300 -80.695900 -5.348130 -0.000001 -0.000004 -62.794800 29.467500 -12.151000 -24.328900 0.000322 -0.000009 -0.008264 -0.020029 -19.634100 -22.291500 -0.000108 -0.000004 16.770900 5.388910 -2.580140 -2.192480 -6.469440 -0.000000 -175.590000 -19.762600 -14.091500 39.081100 -0.000007 -0.000012 0.183516 -0.104216 60.407400 40.985400 -0.000006 -0.000013 -3.256680 -2.554130 -57.038500 11.754300 -0.000000 0.000003 -0.033531 -0.233227 -26.140800 -2.192510 6.469440 -0.000001 -172.703000 14.028300 157.867000 -39.081100 -0.002282 -0.040193 -0.211911 0.259899 39.624200 -40.985400 0.000008 0.000006 12.278300 -3.588090 -67.414700 -11.754300 -0.000006 -0.000006 -0.003442 -0.045510 -18.424100
0.000000 0.000000 0.000000 0.000000 0.000000 -0.000000 125.333000 88.525500 153.082000 92.705200 -42.761300 4.479000 15.735700 0.000005 -0.000001 82.996900 80.250900 -83.157000 8.984550 -0.406207 -0.000000 11.590600 -2.363150 -0.080218 16.377300 -0.000001 -0.000001 1.826490 -17.757500 4.001450 6.456720 -0.000001 -0.000000 -1.423090 -22.745800 7.378270 12.994200 -0.242716 4.980390 -90.753400 2.695150 -74.376900 5.348090 -0.000007 -0.000001 -58.564900 25.259300 -21.753100 24.328600 0.000019 0.000005 7.878640 13.586300 -30.501300 22.291600 -0.000001 0.000005 15.132600 5.199430 2.732560 12.994500 -0.242716 -4.980390 88.462900 9.596270 -80.856000 -5.348130 -0.000001 -0.000004 -62.371800 28.969900 -12.705200 -24.328900 0.000322 -0.000009 -0.307788 -0.821281 -20.469300 -22.291500 -0.000108 -0.000004 16.976600 5.400530 -2.954060 -2.192480 -6.469440 -0.000000 -175.936000 -17.231800 -17.997500 39.081100 -0.000007 -0.000012 0.184256 -0.080378 66.430500 40.985400 -0.000006 -0.000013 -1.506450 -3.524550 -52.977300 11.754300 -0.000000 0.000003 -0.003669 -0.047965 -18.527700 -2.192510 6.469440 -0.000001 -173.264000 13.803100 159.803000 -39.081100 -0.002282 -0.040193 -0.214717 0.260339 39.941500 -40.985400 0.000008 0.000006 12.317700 -2.446460 -69.290900 -11.754300 -0.000006 -0.000006 -0.002831 -0.038673 -18.145800
0.000000 0.000000 0.000000 0.000000 0.000000 -0.000000 124.127000 88.707000 154.701000 93.175100 -45.199500 4.837280 15.735700 0.000005 -0.000001 85.409500 80.268100 -85.701000 8.984550 -0.406207 -0.000000 11.634500 -1.554740 -0.424418 16.377300 -0.000001 -0.000001 1.757030 -17.639700 4.178360 6.456720 -0.000001 -0.000000 -1.456990 -22.642600 7.527860 12.994200 -0.242716 4.980390 -90.910800 3.208360 -74.143300 5.348090 -0.000007 -0.000001 -59.018200 26.549100 -20.406200 24.328600 0.000019 0.000005 8.461010 14.297200 -31.063000 22.291600 -0.000001 0.000005 14.954200 5.208460 2.506180 12.994500 -0.242716 -4.980390 88.472300 9.683700 -80.990900 -5.348130 -0.000001 -0.000004 -60.999300 29.527800 -14.040600 -24.328900 0.000322 -0.000009 -0.491987 -1.251600 -21.418700 -22.291500 -0.000108 -0.000004 17.174700 5.406470 -3.148650 -2.192480 -6.469440 -0.000000 -176.586000 -15.138500 -20.604400 39.081100 -0.000007 -0.000012 0.142497 -0.055332 68.776700 40.985400 -0.000006 -0.000013 -0.915090 -2.171190 -56.240200 11.754300 -0.000000 0.000003 -0.004184 -0.053346 -18.746900 -2.192510 6.469440 -0.000001 -173.968000 13.100300 161.617000 -39.081100 -0.002282 -0.040193 -0.180101 0.221183 39.661900 -40.985400 0.000008 0.000006 12.816800 -1.046310 -70.766900 -11.754300 -0.000006 -0.000006 -0.002325 -0.032710 -17.903200
